<?xml version="1.0" standalone="no"?>
<!DOCTYPE svg PUBLIC "-//W3C//DTD SVG 20010904//EN"
 "http://www.w3.org/TR/2001/REC-SVG-20010904/DTD/svg10.dtd">
<svg version="1.0" xmlns="http://www.w3.org/2000/svg"
 width="256.000000pt" height="256.000000pt" viewBox="0 0 256.000000 256.000000"
 preserveAspectRatio="xMidYMid meet">
<metadata>
Created by potrace 1.11, written by Peter Selinger 2001-2013
</metadata>
<g transform="translate(0.000000,256.000000) scale(0.100000,-0.100000)"
fill="#000000" stroke="none">
<path d="M645 1778 c18 -57 88 -273 156 -480 l124 -377 122 -1 121 0 71 213
c124 370 137 406 143 413 4 3 53 -136 110 -310 l103 -316 121 0 122 0 40 123
c63 190 258 789 266 815 7 22 7 22 -101 22 l-108 0 -110 -335 c-60 -185 -112
-330 -116 -323 -4 7 -53 158 -110 336 l-103 322 -106 0 -105 0 -110 -330 c-60
-181 -112 -330 -115 -330 -3 0 -52 149 -110 330 l-105 330 -116 0 -117 0 33
-102z"/>
<path d="M488 1544 c-36 -19 -48 -43 -48 -94 0 -33 6 -48 29 -71 25 -25 37
-29 84 -29 40 0 61 6 80 21 34 26 52 84 38 121 -22 59 -121 86 -183 52z"/>
<path d="M460 905 l0 -335 95 0 95 0 0 335 0 335 -95 0 -95 0 0 -335z"/>
</g>
</svg>
